<svg xmlns="http://www.w3.org/2000/svg" xmlns:xlink="http://www.w3.org/1999/xlink" width="1000" zoomAndPan="magnify" viewBox="0 0 750 225" height="300" preserveAspectRatio="xMidYMid meet" version="1.0"><defs><clipPath id="a6717e3947"><path d="M 0.824219 0.382812 L 735.691406 0.382812 L 735.691406 216.617188 L 0.824219 216.617188 Z M 0.824219 0.382812 " clip-rule="nonzero"/></clipPath><clipPath id="bba01de56a"><path d="M 28.574219 0.382812 L 707.425781 0.382812 C 722.75 0.382812 735.175781 12.804688 735.175781 28.132812 L 735.175781 188.867188 C 735.175781 204.195312 722.75 216.617188 707.425781 216.617188 L 28.574219 216.617188 C 13.25 216.617188 0.824219 204.195312 0.824219 188.867188 L 0.824219 28.132812 C 0.824219 12.804688 13.25 0.382812 28.574219 0.382812 Z M 28.574219 0.382812 " clip-rule="nonzero"/></clipPath><clipPath id="e4e1144ffb"><path d="M 0.824219 0.382812 L 735 0.382812 L 735 216.617188 L 0.824219 216.617188 Z M 0.824219 0.382812 " clip-rule="nonzero"/></clipPath><clipPath id="33849222cc"><path d="M 28.574219 0.382812 L 707.425781 0.382812 C 722.75 0.382812 735.175781 12.804688 735.175781 28.132812 L 735.175781 188.867188 C 735.175781 204.195312 722.75 216.617188 707.425781 216.617188 L 28.574219 216.617188 C 13.25 216.617188 0.824219 204.195312 0.824219 188.867188 L 0.824219 28.132812 C 0.824219 12.804688 13.25 0.382812 28.574219 0.382812 Z M 28.574219 0.382812 " clip-rule="nonzero"/></clipPath><clipPath id="81b7a5768a"><rect x="0" width="736" y="0" height="217"/></clipPath><clipPath id="f3cbec95b0"><path d="M 239 52.203125 L 299 52.203125 L 299 150 L 239 150 Z M 239 52.203125 " clip-rule="nonzero"/></clipPath><clipPath id="d465e5b003"><path d="M 435 77 L 498 77 L 498 173.972656 L 435 173.972656 Z M 435 77 " clip-rule="nonzero"/></clipPath><clipPath id="44226e016b"><path d="M 518 52.203125 L 581 52.203125 L 581 151 L 518 151 Z M 518 52.203125 " clip-rule="nonzero"/></clipPath><clipPath id="353e44025d"><path d="M 578 52.203125 L 642 52.203125 L 642 151 L 578 151 Z M 578 52.203125 " clip-rule="nonzero"/></clipPath><clipPath id="84ff91948d"><path d="M 636 76 L 682.84375 76 L 682.84375 151 L 636 151 Z M 636 76 " clip-rule="nonzero"/></clipPath><clipPath id="ec11eef0c2"><path d="M 39.480469 52.203125 L 187 52.203125 L 187 150 L 39.480469 150 Z M 39.480469 52.203125 " clip-rule="nonzero"/></clipPath><clipPath id="91bcfb0b97"><rect x="0" width="736" y="0" height="217"/></clipPath></defs><g transform="matrix(1, 0, 0, 1, 7, 4)"><g clip-path="url(#91bcfb0b97)"><g clip-path="url(#a6717e3947)"><g clip-path="url(#bba01de56a)"><g transform="matrix(1, 0, 0, 1, 0, -0.000000000000008882)"><g clip-path="url(#81b7a5768a)"><g clip-path="url(#e4e1144ffb)"><g clip-path="url(#33849222cc)"><path fill="#55565a" d="M 0.824219 0.382812 L 734.847656 0.382812 L 734.847656 216.617188 L 0.824219 216.617188 Z M 0.824219 0.382812 " fill-opacity="1" fill-rule="nonzero"/></g></g></g></g></g></g><path stroke-linecap="butt" transform="matrix(3.723158, 0, 0, 3.726722, 39.48038, 52.528223)" fill-opacity="1" fill="#ffffff" fill-rule="nonzero" stroke-linejoin="miter" d="M 46.799598 24.799542 C 45.300325 24.799542 43.800002 24.400188 42.500072 23.799585 C 42.400401 23.799585 42.200008 23.600432 42.200008 23.499807 C 42.200008 23.400231 42.200008 23.400231 42.200008 23.299606 L 42.599744 22.299649 C 42.700465 22.100496 42.700465 22.100496 42.800137 22.100496 L 42.999481 22.100496 C 44.199739 22.700051 45.499669 22.999829 46.900319 23.100453 C 49.200115 23.100453 50.700437 21.999871 50.700437 20.099533 C 50.700437 18.200244 49.500179 17.700265 47.900185 17.099662 L 45.900454 16.299906 C 43.800002 15.500149 42.400401 14.200415 42.400401 12.2005 C 42.400401 10.199538 44.89954 7.899846 47.800513 7.899846 C 49.200115 7.899846 50.599716 8.199623 51.899646 8.800226 C 52.000367 8.800226 52.199711 9.000427 52.199711 9.100004 L 51.899646 10.000385 C 51.899646 10.199538 51.799974 10.300162 51.599582 10.300162 L 51.199845 10.300162 C 50.100308 9.800184 48.90005 9.500406 47.699792 9.500406 C 45.700061 9.500406 44.499803 10.500363 44.499803 11.899674 C 44.499803 13.300034 45.300325 13.899589 46.900319 14.599769 L 49.299786 15.599726 C 51.199845 16.399482 52.79984 17.799841 52.79984 19.90038 C 52.79984 21.999871 50.500045 24.799542 46.799598 24.799542 " stroke="#ffffff" stroke-width="0.1" stroke-opacity="1" stroke-miterlimit="10"/><path fill="#ffffff" d="M 291.539062 143.832031 L 287.441406 143.832031 C 286.324219 143.832031 285.582031 143.085938 285.582031 141.96875 C 285.582031 141.96875 285.582031 141.597656 285.582031 141.597656 L 285.582031 105.820312 C 285.582031 95.757812 282.976562 88.304688 271.804688 88.304688 C 264.730469 88.675781 258.03125 91.660156 252.816406 96.503906 L 252.816406 141.597656 C 253.191406 142.714844 252.445312 143.460938 251.328125 143.832031 C 251.328125 143.832031 250.957031 143.832031 250.957031 143.832031 L 246.488281 143.832031 C 245.371094 143.832031 244.625 143.085938 244.625 141.96875 C 244.625 141.96875 244.625 141.597656 244.625 141.597656 L 244.625 57.371094 C 244.625 55.882812 245 55.507812 246.117188 55.136719 L 250.582031 54.390625 L 250.957031 54.390625 C 251.699219 54.390625 252.445312 55.136719 252.445312 55.882812 C 252.445312 55.882812 252.445312 56.253906 252.445312 56.253906 L 252.445312 89.421875 C 258.402344 84.207031 265.847656 81.597656 273.667969 81.597656 C 288.558594 81.597656 293.398438 90.539062 293.398438 104.328125 L 293.398438 141.222656 C 293.773438 142.34375 293.027344 143.085938 291.910156 143.460938 C 291.910156 143.460938 291.539062 143.460938 291.539062 143.460938 " fill-opacity="1" fill-rule="nonzero"/><g clip-path="url(#f3cbec95b0)"><path stroke-linecap="butt" transform="matrix(3.723158, 0, 0, 3.726722, 39.48038, 52.528223)" fill="none" stroke-linejoin="miter" d="M 67.700247 24.499764 L 66.599661 24.499764 C 66.299596 24.499764 66.100253 24.299563 66.100253 23.999786 C 66.100253 23.999786 66.100253 23.900209 66.100253 23.900209 L 66.100253 14.299991 C 66.100253 11.599897 65.400452 9.599982 62.399806 9.599982 C 60.499747 9.699559 58.700409 10.500363 57.299759 11.800098 L 57.299759 23.900209 C 57.40048 24.199987 57.200087 24.400188 56.900022 24.499764 C 56.900022 24.499764 56.800351 24.499764 56.800351 24.499764 L 55.600092 24.499764 C 55.300028 24.499764 55.099635 24.299563 55.099635 23.999786 C 55.099635 23.999786 55.099635 23.900209 55.099635 23.900209 L 55.099635 1.299499 C 55.099635 0.900145 55.200356 0.79952 55.500421 0.699944 L 56.69963 0.499743 L 56.800351 0.499743 C 56.999694 0.499743 57.200087 0.699944 57.200087 0.900145 C 57.200087 0.900145 57.200087 0.999721 57.200087 0.999721 L 57.200087 9.89976 C 58.800081 8.500449 60.799812 7.800269 62.900264 7.800269 C 66.899725 7.800269 68.199655 10.199538 68.199655 13.899589 L 68.199655 23.799585 C 68.300376 24.10041 68.099983 24.299563 67.799919 24.400188 C 67.799919 24.400188 67.700247 24.400188 67.700247 24.400188 " stroke="#ffffff" stroke-width="0.1" stroke-opacity="1" stroke-miterlimit="10"/></g><path stroke-linecap="butt" transform="matrix(3.723158, 0, 0, 3.726722, 39.48038, 52.528223)" fill-opacity="1" fill="#ffffff" fill-rule="nonzero" stroke-linejoin="miter" d="M 85.099793 24.499764 L 83.799863 24.499764 C 82.499933 24.499764 81.899804 23.400231 81.899804 22.100496 L 81.899804 21.600517 C 80.899939 23.499807 78.900208 24.799542 76.700084 24.799542 C 72.100494 24.799542 70.099714 20.799713 70.099714 16.599683 C 70.099714 12.399653 73.299703 7.800269 77.199493 7.800269 C 78.99988 7.800269 80.699546 8.500449 81.800132 9.89976 L 81.800132 8.800226 C 81.70046 8.500449 81.899804 8.300248 82.100197 8.199623 C 82.199869 8.199623 82.400261 8.199623 82.499933 8.199623 L 83.499798 8.199623 C 83.799863 8.199623 84.000256 8.399824 84.000256 8.699602 C 84.000256 8.699602 84.000256 8.800226 84.000256 8.800226 L 84.000256 20.700137 C 83.899535 21.299692 84.000256 21.999871 84.099928 22.600475 C 84.199599 22.900252 84.499664 22.999829 84.799728 22.999829 L 85.000121 22.999829 C 85.099793 22.900252 85.300186 22.999829 85.399857 23.100453 C 85.399857 23.20003 85.399857 23.299606 85.399857 23.400231 L 85.399857 24.199987 C 85.399857 24.499764 85.300186 24.499764 85.000121 24.499764 M 81.899804 12.399653 C 81.100331 10.699516 79.299944 9.599982 77.399885 9.599982 C 74.499961 9.599982 72.399509 12.2005 72.399509 16.500107 C 72.399509 20.799713 74.499961 22.999829 76.900477 22.999829 C 79.299944 22.999829 81.200003 20.999914 81.899804 18.900423 Z M 81.899804 12.399653 " stroke="#ffffff" stroke-width="0.1" stroke-opacity="1" stroke-miterlimit="10"/><path stroke-linecap="butt" transform="matrix(3.723158, 0, 0, 3.726722, 39.48038, 52.528223)" fill-opacity="1" fill="#ffffff" fill-rule="nonzero" stroke-linejoin="miter" d="M 107.19965 8.699602 L 102.60006 23.999786 C 102.60006 24.299563 102.200323 24.600389 101.900259 24.499764 L 100.499608 24.499764 C 100.199544 24.600389 99.899479 24.299563 99.799807 23.999786 L 96.400475 11.700522 L 92.900421 23.999786 C 92.900421 24.299563 92.499636 24.600389 92.199571 24.499764 L 90.899642 24.499764 C 90.599577 24.499764 90.299512 24.299563 90.199841 23.999786 L 85.60025 8.800226 L 85.60025 8.600025 C 85.60025 8.399824 85.799594 8.199623 85.999986 8.199623 C 85.999986 8.199623 86.099658 8.199623 86.099658 8.199623 L 87.299916 8.199623 C 87.800374 8.199623 87.900045 8.300248 87.999717 8.600025 L 91.700163 21.999871 L 91.799835 21.999871 L 95.500281 8.600025 C 95.500281 8.399824 95.800346 8.199623 95.999689 8.199623 L 97.100276 8.199623 C 97.299619 8.199623 97.500012 8.300248 97.500012 8.500449 L 101.399802 21.900295 L 101.499473 21.900295 L 105.100248 8.600025 C 105.100248 8.300248 105.499984 8.00047 105.800049 8.100047 L 106.799914 8.100047 C 107.000307 8.00047 107.099979 8.100047 107.19965 8.300248 C 107.19965 8.300248 107.19965 8.399824 107.19965 8.399824 C 107.19965 8.500449 107.19965 8.500449 107.19965 8.699602 " stroke="#ffffff" stroke-width="0.1" stroke-opacity="1" stroke-miterlimit="10"/><path fill="#ffffff" d="M 485.140625 165.449219 C 479.558594 169.546875 472.855469 171.785156 466.152344 171.410156 C 460.195312 171.039062 454.238281 169.546875 448.65625 166.9375 C 447.910156 166.566406 447.539062 166.191406 447.539062 165.449219 C 447.539062 165.074219 447.539062 165.074219 447.539062 164.703125 L 448.65625 161.347656 C 448.65625 160.976562 449.398438 160.230469 449.773438 160.230469 L 450.890625 160.230469 C 455.355469 162.464844 460.570312 163.957031 465.78125 164.328125 C 470.996094 164.703125 476.207031 162.839844 479.929688 159.484375 C 483.28125 156.132812 485.140625 150.167969 485.140625 141.222656 L 485.140625 136.007812 C 480.300781 141.222656 473.226562 144.207031 466.152344 144.207031 C 447.910156 144.207031 440.464844 130.042969 440.464844 113.644531 C 440.464844 97.25 449.773438 82.34375 467.644531 82.34375 C 474.34375 82.34375 480.675781 84.949219 484.769531 90.167969 L 484.769531 85.324219 C 484.769531 84.207031 485.515625 83.460938 486.632812 83.460938 C 486.632812 83.460938 487.003906 83.460938 487.003906 83.460938 L 490.726562 83.460938 C 491.84375 83.460938 492.589844 84.207031 492.589844 85.324219 C 492.589844 85.324219 492.589844 85.695312 492.589844 85.695312 L 492.589844 141.597656 C 492.589844 152.777344 490.355469 160.976562 484.398438 166.191406 M 484.769531 99.113281 C 481.417969 92.777344 475.089844 89.050781 468.015625 88.675781 C 455.355469 88.675781 448.65625 98.738281 448.65625 113.273438 C 448.65625 127.808594 453.125 137.871094 466.898438 137.871094 C 473.972656 137.871094 480.675781 134.515625 485.140625 128.925781 L 485.140625 99.113281 Z M 484.769531 99.113281 " fill-opacity="1" fill-rule="nonzero"/><g clip-path="url(#d465e5b003)"><path stroke-linecap="butt" transform="matrix(3.723158, 0, 0, 3.726722, 39.48038, 52.528223)" fill="none" stroke-linejoin="miter" d="M 119.699541 30.300355 C 118.200268 31.399889 116.399881 32.000492 114.599493 31.899867 C 112.999499 31.800291 111.399505 31.399889 109.900231 30.699709 C 109.699838 30.600132 109.600167 30.499508 109.600167 30.300355 C 109.600167 30.19973 109.600167 30.19973 109.600167 30.100154 L 109.900231 29.199773 C 109.900231 29.100197 110.099575 28.899996 110.200296 28.899996 L 110.50036 28.899996 C 111.699569 29.499551 113.10022 29.899953 114.499822 29.999529 C 115.900472 30.100154 117.300074 29.600175 118.29994 28.699794 C 119.200133 27.800462 119.699541 26.199901 119.699541 23.799585 L 119.699541 22.400274 C 118.399611 23.799585 116.499552 24.600389 114.599493 24.600389 C 109.699838 24.600389 107.700108 20.799713 107.700108 16.399482 C 107.700108 12.000299 110.200296 8.00047 115.000279 8.00047 C 116.799617 8.00047 118.500332 8.699602 119.599869 10.099961 L 119.599869 8.800226 C 119.599869 8.500449 119.800262 8.300248 120.100327 8.300248 C 120.100327 8.300248 120.199999 8.300248 120.199999 8.300248 L 121.199864 8.300248 C 121.499928 8.300248 121.700321 8.500449 121.700321 8.800226 C 121.700321 8.800226 121.700321 8.899803 121.700321 8.899803 L 121.700321 23.900209 C 121.700321 26.900081 121.100192 29.100197 119.500198 30.499508 M 119.599869 12.500278 C 118.699676 10.800141 117.00001 9.800184 115.099951 9.699559 C 111.699569 9.699559 109.900231 12.399653 109.900231 16.299906 C 109.900231 20.200158 111.100489 22.900252 114.799886 22.900252 C 116.699945 22.900252 118.500332 21.999871 119.699541 20.499936 L 119.699541 12.500278 Z M 119.599869 12.500278 " stroke="#ffffff" stroke-width="0.1" stroke-opacity="1" stroke-miterlimit="10"/></g><path stroke-linecap="butt" transform="matrix(3.723158, 0, 0, 3.726722, 39.48038, 52.528223)" fill-opacity="1" fill="#ffffff" fill-rule="nonzero" stroke-linejoin="miter" d="M 125.900175 5.69973 C 125.200375 5.69973 124.600245 5.100175 124.600245 4.399995 C 124.600245 3.699816 125.200375 3.10026 125.900175 3.10026 C 126.599976 3.10026 127.200105 3.699816 127.200105 4.399995 C 127.200105 5.100175 126.599976 5.69973 125.900175 5.69973 M 126.399583 24.499764 L 125.300046 24.499764 C 124.999982 24.499764 124.799589 24.299563 124.799589 23.999786 C 124.799589 23.999786 124.799589 23.900209 124.799589 23.900209 L 124.799589 8.800226 C 124.699917 8.500449 124.90031 8.300248 125.200375 8.199623 C 125.200375 8.199623 125.300046 8.199623 125.300046 8.199623 L 126.399583 8.199623 C 126.699648 8.199623 126.900041 8.399824 126.900041 8.699602 C 126.900041 8.699602 126.900041 8.800226 126.900041 8.800226 L 126.900041 23.900209 C 126.999713 24.199987 126.800369 24.400188 126.500304 24.499764 C 126.500304 24.499764 126.399583 24.499764 126.399583 24.499764 " stroke="#ffffff" stroke-width="0.1" stroke-opacity="1" stroke-miterlimit="10"/><path fill="#ffffff" d="M 548.0625 144.949219 C 541.363281 144.949219 535.03125 141.96875 530.566406 136.753906 L 530.566406 141.597656 C 530.9375 142.714844 530.191406 143.460938 529.074219 143.832031 C 528.703125 143.832031 528.332031 143.832031 528.332031 143.832031 L 525.351562 143.832031 C 524.609375 144.207031 523.863281 143.460938 523.492188 142.714844 C 523.492188 142.34375 523.492188 141.96875 523.492188 141.96875 L 523.492188 57.371094 C 523.492188 55.882812 523.863281 55.507812 524.980469 55.136719 L 529.074219 54.390625 L 529.449219 54.390625 C 530.191406 54.390625 530.9375 55.136719 530.9375 55.882812 C 530.9375 55.882812 530.9375 56.253906 530.9375 56.253906 L 530.9375 89.421875 C 536.148438 84.578125 542.851562 81.597656 549.925781 81.597656 C 567.796875 81.597656 575.242188 96.132812 575.242188 112.902344 C 575.242188 129.671875 566.679688 144.578125 547.691406 144.578125 M 548.4375 87.933594 C 541.734375 88.304688 535.03125 91.285156 530.566406 96.503906 L 530.566406 128.925781 C 534.289062 134.890625 540.617188 138.617188 547.320312 138.617188 C 561.09375 138.617188 566.679688 127.433594 566.679688 113.644531 C 566.679688 99.859375 561.09375 87.933594 548.4375 87.933594 " fill-opacity="1" fill-rule="nonzero"/><g clip-path="url(#44226e016b)"><path stroke-linecap="butt" transform="matrix(3.723158, 0, 0, 3.726722, 39.48038, 52.528223)" fill="none" stroke-linejoin="miter" d="M 136.599679 24.799542 C 134.800341 24.799542 133.099626 23.999786 131.900417 22.600475 L 131.900417 23.900209 C 132.000089 24.199987 131.799696 24.400188 131.499631 24.499764 C 131.399959 24.499764 131.300288 24.499764 131.300288 24.499764 L 130.499766 24.499764 C 130.300422 24.600389 130.10003 24.400188 130.000358 24.199987 C 130.000358 24.10041 130.000358 23.999786 130.000358 23.999786 L 130.000358 1.299499 C 130.000358 0.900145 130.10003 0.79952 130.400094 0.699944 L 131.499631 0.499743 L 131.600352 0.499743 C 131.799696 0.499743 132.000089 0.699944 132.000089 0.900145 C 132.000089 0.900145 132.000089 0.999721 132.000089 0.999721 L 132.000089 9.89976 C 133.39969 8.600025 135.200077 7.800269 137.100136 7.800269 C 141.90012 7.800269 143.89985 11.700522 143.89985 16.200329 C 143.89985 20.700137 141.600055 24.699966 136.500007 24.699966 M 136.7004 9.500406 C 134.900013 9.599982 133.099626 10.399739 131.900417 11.800098 L 131.900417 20.499936 C 132.900282 22.100496 134.599948 23.100453 136.400336 23.100453 C 140.099732 23.100453 141.600055 20.099533 141.600055 16.399482 C 141.600055 12.700479 140.099732 9.500406 136.7004 9.500406 " stroke="#ffffff" stroke-width="0.1" stroke-opacity="1" stroke-miterlimit="10"/></g><path fill="#ffffff" d="M 608.378906 144.949219 C 601.675781 144.949219 595.347656 141.96875 590.878906 136.753906 L 590.878906 141.597656 C 591.253906 142.714844 590.507812 143.460938 589.390625 143.832031 C 589.019531 143.832031 588.644531 143.832031 588.644531 143.832031 L 585.667969 143.832031 C 584.921875 144.207031 584.179688 143.460938 583.804688 142.714844 C 583.804688 142.34375 583.804688 141.96875 583.804688 141.96875 L 583.804688 57.371094 C 583.804688 55.882812 584.179688 55.507812 585.296875 55.136719 L 589.761719 54.390625 L 590.136719 54.390625 C 590.878906 54.390625 591.625 55.136719 591.625 55.882812 C 591.625 55.882812 591.625 56.253906 591.625 56.253906 L 591.625 89.421875 C 596.835938 84.578125 603.539062 81.597656 610.613281 81.597656 C 628.484375 81.597656 635.929688 96.132812 635.929688 112.902344 C 635.929688 129.671875 627.367188 144.578125 608.378906 144.578125 M 609.125 87.933594 C 602.421875 88.304688 595.71875 91.285156 591.253906 96.503906 L 591.253906 128.925781 C 594.976562 134.890625 601.304688 138.617188 608.007812 138.617188 C 621.78125 138.617188 627.367188 127.433594 627.367188 113.644531 C 627.367188 99.859375 621.78125 87.933594 609.125 87.933594 " fill-opacity="1" fill-rule="nonzero"/><g clip-path="url(#353e44025d)"><path stroke-linecap="butt" transform="matrix(3.723158, 0, 0, 3.726722, 39.48038, 52.528223)" fill="none" stroke-linejoin="miter" d="M 152.800016 24.799542 C 150.999629 24.799542 149.299963 23.999786 148.099705 22.600475 L 148.099705 23.900209 C 148.200426 24.199987 148.000033 24.400188 147.699968 24.499764 C 147.600296 24.499764 147.499576 24.499764 147.499576 24.499764 L 146.700103 24.499764 C 146.49971 24.600389 146.300367 24.400188 146.199646 24.199987 C 146.199646 24.10041 146.199646 23.999786 146.199646 23.999786 L 146.199646 1.299499 C 146.199646 0.900145 146.300367 0.79952 146.600431 0.699944 L 147.79964 0.499743 L 147.900361 0.499743 C 148.099705 0.499743 148.300097 0.699944 148.300097 0.900145 C 148.300097 0.900145 148.300097 0.999721 148.300097 0.999721 L 148.300097 9.89976 C 149.699699 8.600025 151.500086 7.800269 153.400145 7.800269 C 158.200128 7.800269 160.199859 11.700522 160.199859 16.200329 C 160.199859 20.700137 157.900064 24.699966 152.800016 24.699966 M 153.000409 9.500406 C 151.200022 9.599982 149.399634 10.399739 148.200426 11.800098 L 148.200426 20.499936 C 149.200291 22.100496 150.899957 23.100453 152.700344 23.100453 C 156.399741 23.100453 157.900064 20.099533 157.900064 16.399482 C 157.900064 12.700479 156.399741 9.500406 153.000409 9.500406 " stroke="#ffffff" stroke-width="0.1" stroke-opacity="1" stroke-miterlimit="10"/></g><path fill="#ffffff" d="M 658.640625 144.949219 C 653.058594 144.949219 647.472656 143.460938 642.632812 141.222656 C 642.257812 141.222656 641.515625 140.480469 641.515625 140.105469 C 641.515625 139.734375 641.515625 139.734375 641.515625 139.359375 L 643.003906 135.632812 C 643.375 134.890625 643.375 134.890625 643.75 134.890625 L 644.492188 134.890625 C 648.960938 137.125 653.800781 138.242188 659.015625 138.617188 C 667.578125 138.617188 673.160156 134.515625 673.160156 127.433594 C 673.160156 120.355469 668.695312 118.492188 662.738281 116.253906 L 655.289062 113.273438 C 647.472656 110.292969 642.257812 105.449219 642.257812 97.996094 C 642.257812 90.539062 651.566406 81.96875 662.363281 81.96875 C 667.578125 81.96875 672.789062 83.085938 677.628906 85.324219 C 678 85.324219 678.746094 86.070312 678.746094 86.441406 L 677.628906 89.796875 C 677.628906 90.539062 677.257812 90.914062 676.511719 90.914062 L 675.769531 90.914062 C 671.671875 89.050781 667.203125 87.933594 662.738281 87.933594 C 655.289062 87.933594 650.824219 91.660156 650.824219 96.875 C 650.824219 102.09375 653.800781 104.328125 659.757812 106.9375 L 668.695312 110.664062 C 675.769531 113.644531 681.726562 118.863281 681.726562 126.691406 C 681.726562 134.515625 673.160156 144.949219 659.386719 144.949219 " fill-opacity="1" fill-rule="nonzero"/><g clip-path="url(#84ff91948d)"><path stroke-linecap="butt" transform="matrix(3.723158, 0, 0, 3.726722, 39.48038, 52.528223)" fill="none" stroke-linejoin="miter" d="M 166.299772 24.799542 C 164.800499 24.799542 163.300176 24.400188 162.000246 23.799585 C 161.899525 23.799585 161.700182 23.600432 161.700182 23.499807 C 161.700182 23.400231 161.700182 23.400231 161.700182 23.299606 L 162.099918 22.299649 C 162.19959 22.100496 162.19959 22.100496 162.300311 22.100496 L 162.499654 22.100496 C 163.699913 22.700051 164.999842 22.999829 166.400493 23.100453 C 168.700289 23.100453 170.199562 21.999871 170.199562 20.099533 C 170.199562 18.200244 169.000353 17.700265 167.400359 17.099662 L 165.399579 16.299906 C 163.300176 15.500149 161.899525 14.200415 161.899525 12.2005 C 161.899525 10.199538 164.399713 7.899846 167.299638 7.899846 C 168.700289 7.899846 170.09989 8.199623 171.39982 8.800226 C 171.499492 8.800226 171.699885 9.000427 171.699885 9.100004 L 171.39982 10.000385 C 171.39982 10.199538 171.300148 10.300162 171.099756 10.300162 L 170.900412 10.300162 C 169.799826 9.800184 168.599568 9.500406 167.400359 9.500406 C 165.399579 9.500406 164.20037 10.500363 164.20037 11.899674 C 164.20037 13.300034 164.999842 13.899589 166.599837 14.599769 L 169.000353 15.599726 C 170.900412 16.399482 172.500406 17.799841 172.500406 19.90038 C 172.500406 21.999871 170.199562 24.799542 166.500165 24.799542 " stroke="#ffffff" stroke-width="0.1" stroke-opacity="1" stroke-miterlimit="10"/></g><path fill="#8bc63d" d="M 181.332031 68.179688 C 181.332031 60.355469 176.121094 54.765625 166.441406 54.390625 L 84.53125 54.390625 L 46.554688 114.765625 C 43.574219 119.238281 41.714844 124.828125 41.34375 130.417969 C 41.34375 138.242188 46.554688 143.832031 56.234375 144.207031 L 138.144531 144.207031 L 175.746094 83.460938 C 179.097656 78.988281 180.960938 73.769531 181.332031 68.179688 Z M 181.332031 68.179688 " fill-opacity="1" fill-rule="nonzero"/><g clip-path="url(#ec11eef0c2)"><path stroke-linecap="butt" transform="matrix(3.723158, 0, 0, 3.726722, 39.48038, 52.528223)" fill="none" stroke-linejoin="miter" d="M 38.099825 4.199794 C 38.099825 2.100303 36.700224 0.600367 34.100364 0.499743 L 12.100178 0.499743 L 1.900083 16.700308 C 1.099561 17.900466 0.600153 19.400402 0.500481 20.900338 C 0.500481 22.999829 1.900083 24.499764 4.499943 24.600389 L 26.500128 24.600389 L 36.599503 8.300248 C 37.499696 7.100089 38.000154 5.69973 38.099825 4.199794 Z M 38.099825 4.199794 " stroke="#8bc63d" stroke-width="0.1" stroke-opacity="1" stroke-miterlimit="10"/></g><path stroke-linecap="butt" transform="matrix(3.723158, 0, 0, 3.726722, 39.48038, 52.528223)" fill-opacity="1" fill="#ffffff" fill-rule="nonzero" stroke-linejoin="miter" d="M 20.599559 23.20003 L 20.499887 23.20003 L 20.499887 11.199495 L 29.19966 17.200286 Z M 20.599559 23.20003 " stroke="#ffffff" stroke-width="0.1" stroke-opacity="1" stroke-miterlimit="10"/></g></g></svg>