<?xml version="1.0" encoding="utf-8"?>
<svg width="100%" height="100%" viewBox="0 0 380 252" version="1.1" xmlns="http://www.w3.org/2000/svg" style="fill-rule:evenodd;clip-rule:evenodd;stroke-linejoin:round;stroke-miterlimit:2;">
  <g style="" transform="matrix(0.646313, 0, 0, 0.646313, 0, -0.000002)">
    <path d="M209.26,8.511l-0,-8.511l-209.26,0l0,49.812l74.593,-0l-0,201.75l59.073,0l0,-201.75l32.04,-0c11.014,-17.021 25.782,-31.039 43.554,-41.301Z" style="fill:#fc5000;fill-rule:nonzero;"/>
    <path d="M283.102,199.998c-43.304,0 -73.592,-30.537 -73.592,-74.342c0,-43.804 29.787,-74.342 72.34,-74.342c21.527,-0 42.052,8.01 59.574,23.279l37.797,-34.794c-27.534,-27.283 -58.322,-39.799 -97.371,-39.799c-27.534,0 -52.315,7.76 -72.84,21.026l-0,28.786l-30.288,-0c-15.519,20.776 -24.53,46.808 -24.53,75.844c-0,71.589 54.818,125.656 127.658,125.656c40.801,0 73.592,-13.016 95.869,-38.297l-40.55,-32.791c-8.761,9.261 -25.532,19.774 -54.067,19.774Z" style="fill:#fc5000;fill-rule:nonzero;"/>
  </g>
</svg>